<?xml version="1.0" encoding="UTF-8"?>
<svg width="36px" height="36px" viewBox="0 0 36 36" version="1.1" xmlns="http://www.w3.org/2000/svg" xmlns:xlink="http://www.w3.org/1999/xlink">
    <!-- Generator: Sketch 49.3 (51167) - http://www.bohemiancoding.com/sketch -->
    <title>logo/slack</title>
    <desc>Created with Sketch.</desc>
    <defs></defs>
    <g id="logo/slack" stroke="none" stroke-width="1" fill="none" fill-rule="evenodd">
        <rect id="Rectangle" fill="#0023F4" x="0" y="0" width="36" height="36"></rect>
        <path d="M11.2667363,6.25027635 C11.2656358,6.08224347 11.3342718,6.00121656 11.4393714,6 L16.7436767,6 C16.7218678,6.00014717 29.0954423,8.10796362 29.2017946,8.12760616 C29.273561,8.14818099 29.3478339,8.24326564 29.3484848,8.35049772 L29.3484758,11.386918 C29.3391398,11.6273918 29.3670253,11.5967823 29.1207658,11.5967823 L18.0988506,11.5967823 C17.8272758,11.5967823 17.607121,11.8166646 17.607121,12.0879031 L17.607121,16.6552055 C17.607121,16.926444 17.8272758,17.1463263 18.0988506,17.1463263 L24.6592656,17.1463263 C24.5921347,18.1011315 24.2776963,18.2435302 23.4741361,19.1021828 C22.5753512,20.0625345 22.1761665,21.1072197 22.0811051,22.2471901 L18.0988506,22.2471901 C17.8272758,22.2471901 17.607121,22.4670723 17.607121,22.7383109 L17.607121,27.6568854 C17.607121,29.8649365 15.8828588,30.9872208 14.482192,31 C12.9325456,30.9872208 11.2667363,29.848199 11.2667363,27.6553023 L11.2667363,18.4584863 C11.2667363,18.224007 11.2049286,17.9824324 10.8704731,17.9767101 C10.5360177,17.9709878 9.24267252,17.6906435 8.95271454,17.5542296 C7.74238731,16.984818 7.37237255,16.5299581 7.10149962,15.7275822 C7.0825706,15.6725526 6.91904491,15.1785164 7.20532179,15.1785164 L10.7750068,15.1785262 C11.0465815,15.1785262 11.2667363,14.9586439 11.2667363,14.6874054 L11.2667363,13.0633588 C11.2667363,12.7921203 11.0465815,12.572238 10.7750068,12.572238 C8.4626983,12.5689061 7.3040317,12.5663351 7.29900695,12.5645251 C7.06122574,12.4788709 6.97409439,12.3073789 7.00652027,12.15429 C7.47079035,9.96238076 11.2667363,9.65505245 11.2667363,9.39304082 L11.2667363,6.25027635 Z M14.4129922,28.8910228 C15.1211454,28.8863544 15.6914289,28.3590776 15.686755,27.6501027 C15.6820811,26.9411279 15.1042198,26.321964 14.3960666,26.3266325 C13.6879133,26.331301 13.1176312,26.9410873 13.1223051,27.6500621 C13.126979,28.359037 13.704839,28.8956913 14.4129922,28.8910228 Z M13.4145502,15.5153839 L13.4145502,20.4265916 L15.3814684,20.4265916 L15.3814684,15.5153839 L13.4145502,15.5153839 Z" id="logo" fill="#FDE74F"></path>
    </g>
</svg>